<svg width="799" height="164" viewBox="0 0 799 164" fill="none" xmlns="http://www.w3.org/2000/svg">
<path d="M113.184 111.344C106.528 111.344 100.928 109.872 96.384 106.928C91.84 103.92 88.64 99.856 86.784 94.736L98.112 88.112C100.736 94.96 105.888 98.384 113.568 98.384C117.28 98.384 120 97.712 121.728 96.368C123.456 95.024 124.32 93.328 124.32 91.28C124.32 88.912 123.264 87.088 121.152 85.808C119.04 84.464 115.264 83.024 109.824 81.488C106.816 80.592 104.256 79.696 102.144 78.8C100.096 77.904 98.016 76.72 95.904 75.248C93.856 73.712 92.288 71.792 91.2 69.488C90.112 67.184 89.568 64.496 89.568 61.424C89.568 55.344 91.712 50.512 96 46.928C100.352 43.28 105.568 41.456 111.648 41.456C117.088 41.456 121.856 42.8 125.952 45.488C130.112 48.112 133.344 51.792 135.648 56.528L124.512 62.96C121.824 57.2 117.536 54.32 111.648 54.32C108.896 54.32 106.72 54.96 105.12 56.24C103.584 57.456 102.816 59.056 102.816 61.04C102.816 63.152 103.68 64.88 105.408 66.224C107.2 67.504 110.592 68.912 115.584 70.448C117.632 71.088 119.168 71.6 120.192 71.984C121.28 72.304 122.72 72.848 124.512 73.616C126.368 74.32 127.776 74.992 128.736 75.632C129.76 76.272 130.912 77.136 132.192 78.224C133.472 79.312 134.432 80.432 135.072 81.584C135.776 82.736 136.352 84.144 136.8 85.808C137.312 87.408 137.568 89.168 137.568 91.088C137.568 97.296 135.296 102.224 130.752 105.872C126.272 109.52 120.416 111.344 113.184 111.344ZM183.425 62H195.809V110H183.425V104.336C179.713 109.008 174.497 111.344 167.777 111.344C161.377 111.344 155.873 108.912 151.265 104.048C146.721 99.12 144.449 93.104 144.449 86C144.449 78.896 146.721 72.912 151.265 68.048C155.873 63.12 161.377 60.656 167.777 60.656C174.497 60.656 179.713 62.992 183.425 67.664V62ZM160.577 95.792C163.073 98.288 166.241 99.536 170.081 99.536C173.921 99.536 177.089 98.288 179.585 95.792C182.145 93.232 183.425 89.968 183.425 86C183.425 82.032 182.145 78.8 179.585 76.304C177.089 73.744 173.921 72.464 170.081 72.464C166.241 72.464 163.073 73.744 160.577 76.304C158.081 78.8 156.833 82.032 156.833 86C156.833 89.968 158.081 93.232 160.577 95.792ZM219.423 70.256C220.575 67.184 222.463 64.88 225.087 63.344C227.775 61.808 230.751 61.04 234.015 61.04V74.864C230.239 74.416 226.847 75.184 223.839 77.168C220.895 79.152 219.423 82.448 219.423 87.056V110H207.039V62H219.423V70.256ZM275.957 62H288.341V110H275.957V104.336C272.245 109.008 267.029 111.344 260.309 111.344C253.909 111.344 248.405 108.912 243.797 104.048C239.253 99.12 236.98 93.104 236.98 86C236.98 78.896 239.253 72.912 243.797 68.048C248.405 63.12 253.909 60.656 260.309 60.656C267.029 60.656 272.245 62.992 275.957 67.664V62ZM253.109 95.792C255.605 98.288 258.773 99.536 262.613 99.536C266.453 99.536 269.621 98.288 272.117 95.792C274.677 93.232 275.957 89.968 275.957 86C275.957 82.032 274.677 78.8 272.117 76.304C269.621 73.744 266.453 72.464 262.613 72.464C258.773 72.464 255.605 73.744 253.109 76.304C250.613 78.8 249.365 82.032 249.365 86C249.365 89.968 250.613 93.232 253.109 95.792ZM389.906 42.8V110H376.754V66.416L357.842 97.616H356.306L337.394 66.512V110H324.146V42.8H337.778L357.074 74.576L376.274 42.8H389.906ZM412.316 91.088C413.98 97.104 418.492 100.112 425.852 100.112C430.588 100.112 434.172 98.512 436.604 95.312L446.588 101.072C441.852 107.92 434.876 111.344 425.66 111.344C417.724 111.344 411.356 108.944 406.556 104.144C401.756 99.344 399.355 93.296 399.355 86C399.355 78.768 401.724 72.752 406.46 67.952C411.196 63.088 417.276 60.656 424.7 60.656C431.74 60.656 437.532 63.088 442.076 67.952C446.684 72.816 448.988 78.832 448.988 86C448.988 87.6 448.828 89.296 448.508 91.088H412.316ZM412.124 81.488H436.604C435.9 78.224 434.428 75.792 432.188 74.192C430.012 72.592 427.516 71.792 424.7 71.792C421.372 71.792 418.62 72.656 416.444 74.384C414.268 76.048 412.828 78.416 412.124 81.488ZM484.321 60.656C489.569 60.656 493.889 62.416 497.281 65.936C500.737 69.456 502.465 74.32 502.465 80.528V110H490.081V82.064C490.081 78.864 489.217 76.432 487.489 74.768C485.761 73.04 483.457 72.176 480.577 72.176C477.377 72.176 474.817 73.168 472.897 75.152C470.977 77.136 470.017 80.112 470.017 84.08V110H457.633V62H470.017V67.376C473.025 62.896 477.793 60.656 484.321 60.656ZM550.191 42.416L539.535 55.568H527.631L535.311 42.416H550.191ZM523.503 91.088C525.167 97.104 529.679 100.112 537.039 100.112C541.775 100.112 545.359 98.512 547.791 95.312L557.775 101.072C553.039 107.92 546.063 111.344 536.847 111.344C528.911 111.344 522.543 108.944 517.743 104.144C512.943 99.344 510.543 93.296 510.543 86C510.543 78.768 512.911 72.752 517.647 67.952C522.383 63.088 528.463 60.656 535.887 60.656C542.927 60.656 548.719 63.088 553.263 67.952C557.871 72.816 560.175 78.832 560.175 86C560.175 87.6 560.015 89.296 559.695 91.088H523.503ZM523.311 81.488H547.791C547.087 78.224 545.615 75.792 543.375 74.192C541.199 72.592 538.703 71.792 535.887 71.792C532.559 71.792 529.807 72.656 527.631 74.384C525.455 76.048 524.015 78.416 523.311 81.488ZM595.508 60.656C600.756 60.656 605.076 62.416 608.468 65.936C611.924 69.456 613.652 74.32 613.652 80.528V110H601.268V82.064C601.268 78.864 600.404 76.432 598.676 74.768C596.948 73.04 594.644 72.176 591.764 72.176C588.564 72.176 586.004 73.168 584.084 75.152C582.164 77.136 581.204 80.112 581.204 84.08V110H568.82V62H581.204V67.376C584.212 62.896 588.98 60.656 595.508 60.656ZM660.611 42.8H672.995V110H660.611V104.336C656.963 109.008 651.779 111.344 645.059 111.344C638.595 111.344 633.059 108.912 628.451 104.048C623.907 99.12 621.635 93.104 621.635 86C621.635 78.896 623.907 72.912 628.451 68.048C633.059 63.12 638.595 60.656 645.059 60.656C651.779 60.656 656.963 62.992 660.611 67.664V42.8ZM637.763 95.792C640.323 98.288 643.523 99.536 647.363 99.536C651.203 99.536 654.371 98.288 656.867 95.792C659.363 93.232 660.611 89.968 660.611 86C660.611 82.032 659.363 78.8 656.867 76.304C654.371 73.744 651.203 72.464 647.363 72.464C643.523 72.464 640.323 73.744 637.763 76.304C635.267 78.8 634.019 82.032 634.019 86C634.019 89.968 635.267 93.232 637.763 95.792ZM694.784 91.088C696.448 97.104 700.96 100.112 708.32 100.112C713.056 100.112 716.64 98.512 719.072 95.312L729.056 101.072C724.32 107.92 717.344 111.344 708.128 111.344C700.192 111.344 693.824 108.944 689.024 104.144C684.224 99.344 681.824 93.296 681.824 86C681.824 78.768 684.192 72.752 688.928 67.952C693.664 63.088 699.744 60.656 707.168 60.656C714.208 60.656 720 63.088 724.544 67.952C729.152 72.816 731.456 78.832 731.456 86C731.456 87.6 731.296 89.296 730.976 91.088H694.784ZM694.592 81.488H719.072C718.368 78.224 716.896 75.792 714.656 74.192C712.48 72.592 709.984 71.792 707.168 71.792C703.84 71.792 701.088 72.656 698.912 74.384C696.736 76.048 695.296 78.416 694.592 81.488ZM752.924 98.384H774.236V110H736.316V101.744L756.572 73.616H737.276V62H773.276V70.256L752.924 98.384Z" fill="#302E2E"/>
<line x1="17.4759" y1="105.37" x2="61.4759" y2="43.37" stroke="#302E2E" stroke-width="16"/>
</svg>
